<svg viewBox="0 0 329 54" fill="none" xmlns="http://www.w3.org/2000/svg">
    <g filter="url(#filter0_i_1_14)">
        <path
            d="M26.2031 0.4375C26.1562 0.53125 26.0156 0.671875 25.8281 0.8125C25.0781 1.42188 23.9062 2.64062 22.4531 4.42188C20.9531 6.20312 19.6406 8.64062 18.5625 11.6406C17.4375 14.6406 17.1562 18.2969 17.5781 22.5625H19.4531C19.5 19.7031 19.9688 16.6562 20.8594 13.5156C21.7969 10.3281 23.5312 7.51562 26.2031 5.07812C30.0469 1.9375 33.8906 0.53125 37.6875 0.71875C41.4375 1.04688 44.2969 2.3125 46.2188 4.42188C48.0938 6.53125 49.3125 9.15625 49.7812 12.3906C50.2969 15.5781 50.2969 18.9531 49.875 22.5625H51.7031C51.8438 19.2812 52.4062 15.9531 53.4844 12.625C54.5156 9.29688 56.2969 6.48438 58.7344 4.23438C61.2188 1.9375 64.5938 0.765625 68.9062 0.671875C72.4688 0.53125 75.7031 1.42188 78.6562 3.34375C81.5625 5.26562 83.8594 7.89062 85.4531 11.2188C87.0938 14.5 87.7969 19.4688 87.5625 26.125C87.375 32.7344 88.4531 41.3594 90.8438 52H67.0781C67.5938 48.9531 68.1094 44.5938 68.5781 38.9688C69 33.3438 69.1406 27.9531 68.9062 22.75C68.625 14.875 67.2188 10.5156 64.5938 9.67188C62.0156 8.82812 60 9.20312 58.5938 10.8906C57.1875 12.5781 56.0156 16.4219 55.0312 22.375C54.0469 28.375 54 33.8125 54.8906 38.6875C55.7344 43.5625 56.9531 48.0156 58.5469 52.0469H34.7812C35.4375 49.9375 36.0938 47.125 36.75 43.5156C37.4062 39.9062 37.7812 36.1094 37.875 32.125C38.0156 28.1406 37.7344 23.9688 37.0312 19.5625C36.3281 15.1562 34.8281 12.2031 32.4844 10.6094C30.1875 9.0625 28.125 9.25 26.3906 11.1719C24.6094 13.1406 23.3906 16.7031 22.7344 22C22.1719 27.6719 22.2656 32.9688 23.1094 37.8438C23.9531 42.7656 24.7969 46.6094 25.6406 49.3281C25.9688 50.6406 26.2031 51.5312 26.2969 52.0469H2.53125C3.04688 49.8906 3.5625 46.0938 4.125 40.6094C4.6875 35.1719 4.82812 29.2188 4.5 22.8438C4.17188 16.4688 3 10.7969 0.890625 5.875L26.2031 0.4375ZM117.844 1.51562C122.859 1.5625 127.266 3.10938 131.062 6.10938C134.812 9.10938 137.016 13.375 137.719 18.8594C137.906 22.9844 137.016 26.2188 135.047 28.5625C133.125 30.9531 130.641 32.4531 127.547 33.1094C124.453 33.7656 121.266 33.5781 117.984 32.5469C114.703 31.5156 111.797 29.6875 109.312 26.9688C106.781 24.2969 105.141 20.7812 104.344 16.4688L103.312 17.125C103.547 21.1094 104.672 24.8594 106.734 28.375C108.75 31.8906 111.422 34.7969 114.703 37C117.984 39.25 121.547 40.4219 125.484 40.5625C129.422 40.7031 133.406 39.3906 137.438 36.5781C136.969 40.8438 135.797 44.1719 133.875 46.7031C131.906 49.1875 129.609 50.9688 126.891 52C124.219 53.0781 121.453 53.5469 118.688 53.5C114.656 53.4531 110.719 52.6562 106.875 51.0625C102.984 49.4688 99.75 46.8906 97.125 43.2344C94.4531 39.625 93 34.75 92.625 28.6094C92.2969 24.3906 92.9062 20.5469 94.5 17.0312C96.1406 13.4688 98.3906 10.4219 101.297 7.9375C104.25 5.40625 107.484 3.57812 111.094 2.45312C113.344 1.79688 115.594 1.46875 117.844 1.51562ZM112.266 6.85938C111.375 6.57812 110.438 6.57812 109.547 6.90625C108.047 7.70312 107.25 9.25 107.109 11.6406C106.969 13.9844 107.531 16.6562 108.844 19.5625C110.203 22.4219 111.797 24.5781 113.672 26.0312C115.547 27.5312 117.281 27.9531 118.828 27.2969C120.328 26.5469 121.125 25 121.266 22.6094C121.406 20.2188 120.844 17.5938 119.531 14.6875C117.516 10.4688 115.078 7.89062 112.266 6.85938ZM165.844 1.51562C170.859 1.5625 175.266 3.10938 179.062 6.10938C182.812 9.10938 185.016 13.375 185.719 18.8594C185.906 22.9844 185.016 26.2188 183.047 28.5625C181.125 30.9531 178.641 32.4531 175.547 33.1094C172.453 33.7656 169.266 33.5781 165.984 32.5469C162.703 31.5156 159.797 29.6875 157.312 26.9688C154.781 24.2969 153.141 20.7812 152.344 16.4688L151.312 17.125C151.547 21.1094 152.672 24.8594 154.734 28.375C156.75 31.8906 159.422 34.7969 162.703 37C165.984 39.25 169.547 40.4219 173.484 40.5625C177.422 40.7031 181.406 39.3906 185.438 36.5781C184.969 40.8438 183.797 44.1719 181.875 46.7031C179.906 49.1875 177.609 50.9688 174.891 52C172.219 53.0781 169.453 53.5469 166.688 53.5C162.656 53.4531 158.719 52.6562 154.875 51.0625C150.984 49.4688 147.75 46.8906 145.125 43.2344C142.453 39.625 141 34.75 140.625 28.6094C140.297 24.3906 140.906 20.5469 142.5 17.0312C144.141 13.4688 146.391 10.4219 149.297 7.9375C152.25 5.40625 155.484 3.57812 159.094 2.45312C161.344 1.79688 163.594 1.46875 165.844 1.51562ZM160.266 6.85938C159.375 6.57812 158.438 6.57812 157.547 6.90625C156.047 7.70312 155.25 9.25 155.109 11.6406C154.969 13.9844 155.531 16.6562 156.844 19.5625C158.203 22.4219 159.797 24.5781 161.672 26.0312C163.547 27.5312 165.281 27.9531 166.828 27.2969C168.328 26.5469 169.125 25 169.266 22.6094C169.406 20.2188 168.844 17.5938 167.531 14.6875C165.516 10.4688 163.078 7.89062 160.266 6.85938ZM188.344 27.5312C188.531 22.2812 189.984 17.5938 192.75 13.4688C195.516 9.39062 199.078 6.20312 203.391 3.90625C207.75 1.60938 212.297 0.578125 217.078 0.765625C221.906 0.953125 226.406 2.6875 230.625 6.01562L222.422 24.8594C219.328 16.7969 216.562 11.4062 214.172 8.6875C211.734 5.92188 209.719 5.03125 208.172 6.0625C206.578 7.04688 205.547 9.20312 205.031 12.4375C204.469 15.6719 204.562 19.2344 205.312 23.1719C206.016 27.1094 207.422 30.5781 209.578 33.6719C211.734 36.7656 214.688 38.6406 218.484 39.3438C222.234 40.0469 226.969 38.7812 232.547 35.5938C232.312 39.3438 231.234 42.4844 229.312 44.9219C227.391 47.4062 225.047 49.2344 222.328 50.4531C219.562 51.6719 216.938 52.2812 214.406 52.2812C209.578 52.2812 205.219 51.1562 201.281 48.9531C197.344 46.7031 194.203 43.75 191.859 40C189.516 36.25 188.344 32.0781 188.344 27.5312ZM260.812 1.51562C265.828 1.5625 270.234 3.10938 274.031 6.10938C277.781 9.10938 279.984 13.375 280.688 18.8594C280.875 22.9844 279.984 26.2188 278.016 28.5625C276.094 30.9531 273.609 32.4531 270.516 33.1094C267.422 33.7656 264.234 33.5781 260.953 32.5469C257.672 31.5156 254.766 29.6875 252.281 26.9688C249.75 24.2969 248.109 20.7812 247.312 16.4688L246.281 17.125C246.516 21.1094 247.641 24.8594 249.703 28.375C251.719 31.8906 254.391 34.7969 257.672 37C260.953 39.25 264.516 40.4219 268.453 40.5625C272.391 40.7031 276.375 39.3906 280.406 36.5781C279.938 40.8438 278.766 44.1719 276.844 46.7031C274.875 49.1875 272.578 50.9688 269.859 52C267.188 53.0781 264.422 53.5469 261.656 53.5C257.625 53.4531 253.688 52.6562 249.844 51.0625C245.953 49.4688 242.719 46.8906 240.094 43.2344C237.422 39.625 235.969 34.75 235.594 28.6094C235.266 24.3906 235.875 20.5469 237.469 17.0312C239.109 13.4688 241.359 10.4219 244.266 7.9375C247.219 5.40625 250.453 3.57812 254.062 2.45312C256.312 1.79688 258.562 1.46875 260.812 1.51562ZM255.234 6.85938C254.344 6.57812 253.406 6.57812 252.516 6.90625C251.016 7.70312 250.219 9.25 250.078 11.6406C249.938 13.9844 250.5 16.6562 251.812 19.5625C253.172 22.4219 254.766 24.5781 256.641 26.0312C258.516 27.5312 260.25 27.9531 261.797 27.2969C263.297 26.5469 264.094 25 264.234 22.6094C264.375 20.2188 263.812 17.5938 262.5 14.6875C260.484 10.4688 258.047 7.89062 255.234 6.85938ZM308.812 1.51562C313.828 1.5625 318.234 3.10938 322.031 6.10938C325.781 9.10938 327.984 13.375 328.688 18.8594C328.875 22.9844 327.984 26.2188 326.016 28.5625C324.094 30.9531 321.609 32.4531 318.516 33.1094C315.422 33.7656 312.234 33.5781 308.953 32.5469C305.672 31.5156 302.766 29.6875 300.281 26.9688C297.75 24.2969 296.109 20.7812 295.312 16.4688L294.281 17.125C294.516 21.1094 295.641 24.8594 297.703 28.375C299.719 31.8906 302.391 34.7969 305.672 37C308.953 39.25 312.516 40.4219 316.453 40.5625C320.391 40.7031 324.375 39.3906 328.406 36.5781C327.938 40.8438 326.766 44.1719 324.844 46.7031C322.875 49.1875 320.578 50.9688 317.859 52C315.188 53.0781 312.422 53.5469 309.656 53.5C305.625 53.4531 301.688 52.6562 297.844 51.0625C293.953 49.4688 290.719 46.8906 288.094 43.2344C285.422 39.625 283.969 34.75 283.594 28.6094C283.266 24.3906 283.875 20.5469 285.469 17.0312C287.109 13.4688 289.359 10.4219 292.266 7.9375C295.219 5.40625 298.453 3.57812 302.062 2.45312C304.312 1.79688 306.562 1.46875 308.812 1.51562ZM303.234 6.85938C302.344 6.57812 301.406 6.57812 300.516 6.90625C299.016 7.70312 298.219 9.25 298.078 11.6406C297.938 13.9844 298.5 16.6562 299.812 19.5625C301.172 22.4219 302.766 24.5781 304.641 26.0312C306.516 27.5312 308.25 27.9531 309.797 27.2969C311.297 26.5469 312.094 25 312.234 22.6094C312.375 20.2188 311.812 17.5938 310.5 14.6875C308.484 10.4688 306.047 7.89062 303.234 6.85938Z"
            fill="#FDAE16" />
    </g>
    <defs>
        <filter id="filter0_i_1_14" x="0.890625" y="0.4375" width="327.984" height="57.1094"
            filterUnits="userSpaceOnUse" color-interpolation-filters="sRGB">
            <feFlood flood-opacity="0" result="BackgroundImageFix" />
            <feBlend mode="normal" in="SourceGraphic" in2="BackgroundImageFix" result="shape" />
            <feColorMatrix in="SourceAlpha" type="matrix" values=" 0 0 0 0 0 0 0 0 0 0 0 0 0 0 0 0 0 127 0"
                result="hardAlpha" />
            <feOffset dy="4" />
            <feGaussianBlur stdDeviation="2" />
            <feComposite in2="hardAlpha" operator="arithmetic" k2="-1" k3="1" />
            <feColorMatrix type="matrix" values="0 0 0 0 1 0 0 0 0 0.380392 0 0 0 0 0.227451 0 0 0 1 0" />
            <feBlend mode="normal" in2="shape" result="effect1_innerShadow_1_14" />
        </filter>
    </defs>
</svg>